<?xml version="1.0" encoding="UTF-8"?>
<svg width="1000px" height="1000px" viewBox="0 0 1000 1000" version="1.1" xmlns="http://www.w3.org/2000/svg">
    <g stroke="none" stroke-width="1" fill="none" fill-rule="evenodd">
        <circle fill="#F7931A" cx="500" cy="500" r="500"></circle>
        <path d="M692.8,404.3 C681.5,333.4 618.9,311.5 541.1,301.6 L541.1,187.5 L478.9,187.5 L478.9,298.4 L428.9,298.4 L428.9,187.5 L366.7,187.5 L366.7,298.4 L250,298.4 L250,362.5 L303.3,362.5 C324.4,362.5 332.2,372.4 332.2,385.7 L332.2,614.3 C332.2,632.1 321.1,637.5 307.8,637.5 L250,637.5 L250,701.6 L366.7,701.6 L366.7,812.5 L428.9,812.5 L428.9,701.6 L478.9,701.6 L478.9,812.5 L541.1,812.5 L541.1,700 C644.4,693.8 717.8,669.6 731.1,587.5 C742.2,520.3 703.3,486.5 642.2,469.6 C685.6,448.4 700,419.6 692.8,404.3 Z M478.9,398.4 L541.1,398.4 C595.6,398.4 632.2,413.4 632.2,458.9 C632.2,502.3 595.6,518.4 541.1,518.4 L478.9,518.4 L478.9,398.4 Z M478.9,601.6 L541.1,601.6 C603.3,601.6 642.2,618.7 642.2,666.1 C642.2,711.6 603.3,729.7 541.1,729.7 L478.9,729.7 L478.9,601.6 Z" fill="#FFFFFF"></path>
    </g>
</svg>
