<?xml version="1.0" encoding="UTF-8"?>
<svg width="1000px" height="324px" viewBox="0 0 1000 324" version="1.1" xmlns="http://www.w3.org/2000/svg">
    <g stroke="none" stroke-width="1" fill="none" fill-rule="evenodd">
        <path d="M651.666667,0.676666667 L348.333333,0.676666667 C156.566667,0.676666667 0.676666667,156.566667 0.676666667,348.333333 L0.676666667,651.666667 C0.676666667,843.433333 156.566667,999.323333 348.333333,999.323333 L651.666667,999.323333 C843.433333,999.323333 999.323333,843.433333 999.323333,651.666667 L999.323333,348.333333 C999.323333,156.566667 843.433333,0.676666667 651.666667,0.676666667 Z" fill="#1A1F71"></path>
        <path d="M450.789474,218.947368 L409.210526,218.947368 L435.789474,105.263158 L477.368421,105.263158 L450.789474,218.947368 Z M409.210526,105.263158 L364.736842,172.368421 L356.842105,127.894737 C354.736842,116.052632 345.789474,105.263158 334.210526,105.263158 L268.421053,105.263158 L267.368421,109.473684 C280.263158,112.105263 291.578947,116.842105 301.578947,122.631579 L334.210526,218.947368 L377.894737,218.947368 L450.789474,105.263158 L409.210526,105.263158 Z M559.473684,218.947368 L599.473684,218.947368 L627.631579,105.263158 L588.157895,105.263158 C578.947368,105.263158 571.052632,111.052632 568.421053,119.473684 L523.684211,218.947368 L567.368421,218.947368 L573.157895,203.157895 L613.684211,203.157895 L617.894737,218.947368 L559.473684,218.947368 Z M582.894737,172.368421 L600,134.736842 L608.947368,172.368421 L582.894737,172.368421 Z M683.157895,144.736842 C683.157895,139.473684 687.368421,134.736842 694.736842,134.736842 C706.052632,134.736842 719.473684,137.894737 730.263158,143.157895 L737.631579,112.631579 C726.842105,108.421053 715.789474,105.789474 704.736842,105.789474 C666.315789,105.789474 640.526316,126.315789 640.526316,157.105263 C640.526316,180 658.947368,192.631579 672.368421,200 C686.315789,207.368421 692.105263,212.105263 691.578947,219.473684 C691.578947,230.263158 679.473684,235 667.894737,235 C653.421053,235 638.947368,230.789474 626.315789,224.473684 L618.947368,255.526316 C631.578947,261.842105 645.526316,264.473684 658.947368,264.473684 C699.473684,264.473684 734.736842,244.473684 734.736842,211.578947 C734.736842,175.789474 683.157895,173.684211 683.157895,144.736842 Z" fill="#FFFFFF"></path>
    </g>
</svg>
